<svg viewBox="0 0 285 96" xmlns="http://www.w3.org/2000/svg">
    <title>Takeda | Better Health, Brighter Future</title>
    <g fill="#ED1C24" fill-rule="evenodd">
        <path
            d="M142.225.638C49.855.638.87 66.162.87 66.162l20.083 13.58s2.434-6.082 7.984-14.787c.03 2.186.344 3.71.344 3.71 3.55 27.53 30.29 26.872 30.29 26.872h165.9s27.11.748 30.64-26.78c0 0 .28-1.423.31-3.593 5.46 8.496 7.88 14.385 7.88 14.385l20.05-13.42S234.61.63 142.23.63zm82.882 88.78H59.49c-23.267 0-26.558-21.27-26.558-21.27-.9-5.652.2-9.506 1.946-12.182C51.64 33.9 84.823 4.274 142.158 4.274c57.852 0 91.29 30.065 108.036 52.146 1.937 2.44 2.673 6.463 1.8 11.928 0 0-3.6 21.07-26.887 21.07z">
        </path>
        <path
            d="M221.8 64.693c-2.632 3.72-6.362 5.596-8.338 4.182-1.958-1.396-1.426-5.533 1.22-9.24 2.634-3.715 6.352-5.594 8.34-4.2 1.96 1.4 1.412 5.54-1.222 9.258m-31.006-.138c-2.632 3.707-6.384 5.59-8.33 4.182-1.998-1.39-1.466-5.537 1.198-9.242 2.63-3.715 6.36-5.59 8.324-4.19 1.96 1.41 1.442 5.55-1.192 9.25m-38.526-2.698s1.692-5.77 7.273-8.068c0 0 1.58-.54 2.42.14 0 0 1.2 1.15-.22 3.27-1.27 1.88-4.29 5.29-7.62 6.45 0 0-2.98 1.29-1.84-1.81m-54.11 2.7c-2.62 3.7-6.35 5.59-8.35 4.18-1.95-1.39-1.41-5.54 1.24-9.24 2.62-3.72 6.34-5.59 8.33-4.19 1.96 1.41 1.41 5.55-1.21 9.25m132.46 4.52s-1.772.802-2.55.01c-.76-.8-.09-2.27-.09-2.27l7.485-15.74h-7.612l-1.174 2.09c-4.44-3.907-12.83-1.888-18.03 3.54-2.99 3.12-4.7 6.836-4.94 10.06-.85.57-2.257 1.424-4.09 2.14 0 0-1.79.83-2.557.04-.78-.804-.09-2.284-.09-2.284l13.29-27.344h-7.62l-6.99 13.71c-4.438-3.91-12.81-1.88-18.034 3.544-1.04 1.098-1.923 2.266-2.66 3.47l.02-.02c-.063.106-.124.19-.156.295-.166.276-.34.56-.496.835-4.114 7.194-9.29 8.38-9.29 8.38-10.92 3.26-12.14-2.086-12.14-2.086 12.2-4.507 16.81-9.86 16.37-13.956-.42-4.097-6.04-4.296-6.04-4.296-9.243-.568-17.23 5.89-19.146 12.22-.613 1.935-.772 3.894-.405 5.71-3.71 1.963-5.856 2.264-5.856 2.264-3.084.98-3.424-.477-3.827-1.37-.368-.894-1.738-8.77-1.738-8.77l12.957-8.47h-7.91l-9.744 6.02c-2.21.92-1.356-1.38-1.356-1.38l7.94-16.11h-7.636l-12.9 26.156c-1.477.887-4.477 2.604-6.62 3.453 0 0-1.786.83-2.548.04-.77-.806-.12-2.286-.12-2.286l7.52-15.743h-7.638l-1.165 2.106C98.585 49.12 90.21 51.146 85 56.57c-5.195 5.427-6.52 12.585-2.95 15.99 2.84 2.73 7.94 2.21 12.525-.87 0 0 1.17-1 1.817.17.647 1.217 3.28 3.95 9.32 1.568 1.95-.766 3.703-1.637 5.19-2.47l-1.59 3.208h7.63l3.813-7.73 3.335-2.12s.996-.81 1.412.91c0 0 1.665 6.503 2.292 7.355.64.85 1.914 2.76 7.286 1.22 4.1-1.18 7.94-2.64 9.95-3.49 1.81 2.47 5.25 4.146 10.925 4.146 8.35 0 14.258-3.99 16.75-6.08.198 1.65.824 3.107 1.952 4.18 2.83 2.73 7.964 2.21 12.563-.87 0 0 1.15-1 1.768.17.69 1.216 3.3 3.948 9.35 1.567 2.765-1.1 4.64-2.16 5.87-2.96.3.836.81 1.6 1.46 2.23 2.85 2.73 7.97 2.22 12.57-.863 0 0 1.136-1 1.78.155.65 1.224 3.296 3.97 9.34 1.565 6.05-2.39 7.79-4.54 7.79-4.54l-1.53-2.695c-.213.114-2.074 1.605-4.99 2.75M93.85 45.39l2.766-5.925H61.198l-2.772 5.924h13.717L57.928 74.27H67.1l14.213-28.88">
        </path>
    </g>
</svg>